<svg width="167" height="137" viewBox="0 0 167 137" fill="none" xmlns="http://www.w3.org/2000/svg">
<path fill-rule="evenodd" clip-rule="evenodd" d="M119.098 75.34L83.4681 0.874023L47.8014 75.34L83.4681 113.365L119.098 75.34ZM26.2455 136.534L0.232422 43.7693L83.4507 129.209H83.4482C60.961 129.209 40.6625 132.02 26.2455 136.534ZM140.656 136.534L166.669 43.7693L91.6951 120.745L99.8996 129.722C115.748 130.725 129.852 133.15 140.656 136.534Z" fill="url(#paint0_linear)"/>
<path fill-rule="evenodd" clip-rule="evenodd" d="M135.726 127.774C126.209 125.404 115.156 123.716 103.229 122.824L101.471 120.902L152.28 68.7363L135.726 127.774Z" fill="url(#paint1_linear)"/>
<path fill-rule="evenodd" clip-rule="evenodd" d="M14.6196 68.7339L67.074 122.588C53.9243 123.389 41.6635 125.155 31.1756 127.772L14.6196 68.7339Z" fill="url(#paint2_linear)"/>
<path fill-rule="evenodd" clip-rule="evenodd" d="M56.3174 74.0231L83.4658 17.3457L110.584 74.0231L83.4658 102.967L56.3174 74.0231Z" fill="url(#paint3_linear)"/>
<defs>
<linearGradient id="paint0_linear" x1="157.406" y1="28.9378" x2="22.6085" y2="123.823" gradientUnits="userSpaceOnUse">
<stop stop-color="#DF977D"/>
<stop offset="0.2598" stop-color="#C84EEB"/>
<stop offset="0.6341" stop-color="#414EEA"/>
<stop offset="1" stop-color="#64D8C2"/>
</linearGradient>
<linearGradient id="paint1_linear" x1="130.33" y1="105.053" x2="152.169" y2="69.1573" gradientUnits="userSpaceOnUse">
<stop stop-color="white" stop-opacity="0"/>
<stop offset="0.4897" stop-color="white" stop-opacity="0.3016"/>
<stop offset="1" stop-color="white"/>
</linearGradient>
<linearGradient id="paint2_linear" x1="10.1655" y1="65.9872" x2="31.7531" y2="98.7871" gradientUnits="userSpaceOnUse">
<stop stop-color="white"/>
<stop offset="1" stop-color="white" stop-opacity="0"/>
</linearGradient>
<linearGradient id="paint3_linear" x1="83.451" y1="47.8785" x2="83.451" y2="2.69011" gradientUnits="userSpaceOnUse">
<stop stop-color="white" stop-opacity="0"/>
<stop offset="1" stop-color="white"/>
</linearGradient>
</defs>
</svg>
